<svg xmlns="http://www.w3.org/2000/svg" xmlns:svg="http://www.w3.org/2000/svg" xmlns:xlink="http://www.w3.org/1999/xlink" version="1.0" height="780pt" width="1195pt" viewBox="114.99999999999997 17 1203 786" ><defs><style type="text/css">
            @font-face {
                font-family: 'lt_regular';
                src: url('https://app.creately.com/diagram/assets/fonts/lato/lt-regular-webfont.woff2') format('woff2'),
                    url('https://app.creately.com/diagram/assets/fonts/lato/lt-regular-webfont.woff') format('woff');
                font-weight: normal;
                font-style: normal;
            }
            @font-face {
                font-family: 'noto_regular';
                src: url('https://app.creately.com/diagram/assets/fonts/noto/noto-regular.woff') format('woff'),
                     url('https://app.creately.com/diagram/assets/fonts/noto/noto-regular.woff2') format('woff2');
                font-weight: normal;
                font-style: normal;
            }
        p {
            margin: 0;
        }
        </style></defs><defs><style>
            span{ display: inline-block; }
        </style></defs><g id="KzEF1AMjEiI"><g transform="translate(460 20)"><rect x="0" y="0" width="530" height="89.99999999999999" fill="rgba(255,255,255,0.01)" stroke="rgba(255,255,255,0.01)"/></g><g transform="translate(470, 30) rotate(0, 0, 0)" width="407" height="29"><text text-decoration="none" x="0" fill="rgb(75, 75, 75)" font-weight="bold" font-size="16pt" font-family="lt_regular"  y="23">ER&#160;</text><text text-decoration="none" x="30" fill="rgb(75, 75, 75)" font-weight="bold" font-size="16pt" font-family="lt_regular"  y="23">Diagram&#160;</text><text text-decoration="none" x="112" fill="rgb(75, 75, 75)" font-weight="bold" font-size="16pt" font-family="lt_regular"  y="23">for&#160;</text><text text-decoration="none" x="144" fill="rgb(75, 75, 75)" font-weight="bold" font-size="16pt" font-family="lt_regular"  y="23">Pharmacy&#160;</text><text text-decoration="none" x="240" fill="rgb(75, 75, 75)" font-weight="bold" font-size="16pt" font-family="lt_regular"  y="23">Store&#160;</text><text text-decoration="none" x="295" fill="rgb(75, 75, 75)" font-weight="bold" font-size="16pt" font-family="lt_regular"  y="23">Information</text><text text-decoration="none" x="404" fill="#4b4b4b" font-size="10pt" font-family="noto_regular"  y="23"></text></g></g><g id="p2T6JMQU8eF"><g transform="translate(810 160)"><rect x="0" y="0" width="100" height="50" fill="rgb(203,137,42)" stroke="#cb892a" stroke-width="2" stroke-linecap="round" stroke-linejoin="round" stroke-dasharray="0 0"/></g><g transform="translate(837.5, 175) rotate(0, 22.5, 10)" width="45" height="20"><text text-decoration="none" x="0" fill="#fdf6f6" font-size="11pt" font-family="lt_regular"  y="17">Doctor</text><text text-decoration="none" x="46" fill="#4b4b4b" font-size="10pt" font-family="noto_regular"  y="17"></text></g></g><g id="KhAWiRZYL80"><g transform="translate(930 80.00000000000001)"><ellipse cx="50" cy="25" rx="50" ry="25" fill="rgb(53,98,96)" stroke="#356260" stroke-width="2" stroke-linecap="round" stroke-linejoin="round" stroke-dasharray="0 0"/></g><g transform="translate(955.5, 95) rotate(0, 24.5, 10)" width="49" height="20"><text text-decoration="underline" x="0" fill="#fdf6f6" font-size="11pt" font-family="lt_regular"  y="17">Phys.ID</text><text text-decoration="none" x="50" fill="#4b4b4b" font-size="10pt" font-family="noto_regular"  y="17"></text></g></g><g id="L9vgM25pZlO"><g transform="translate(820 70)"><ellipse cx="50" cy="25" rx="50" ry="25" fill="rgb(53,98,96)" stroke="#356260" stroke-width="2" stroke-linecap="round" stroke-linejoin="round" stroke-dasharray="0 0"/></g><g transform="translate(840, 85) rotate(0, 30, 10)" width="60" height="20"><text text-decoration="none" x="0" fill="#fdf6f6" font-size="11pt" font-family="lt_regular"  y="17">speciality</text><text text-decoration="none" x="61" fill="#4b4b4b" font-size="10pt" font-family="noto_regular"  y="17"></text></g></g><g id="KAXPgTus8Ne"><g transform="translate(710 80)"><ellipse cx="50" cy="25" rx="50" ry="25" fill="rgb(53,98,96)" stroke="#356260" stroke-width="2" stroke-linecap="round" stroke-linejoin="round" stroke-dasharray="0 0"/></g><g transform="translate(733.5, 95) rotate(0, 26.5, 10)" width="53" height="20"><text text-decoration="none" x="0" fill="#fdf6f6" font-size="11pt" font-family="lt_regular"  y="17">D_name</text><text text-decoration="none" x="53" fill="#4b4b4b" font-size="10pt" font-family="noto_regular"  y="17"></text></g></g><g id="UZF8XwiKiMl"><g transform="translate(580 150)"><path d="M 120,35 L 60,70 L 0,35 L 60,0 L 120,35 L 120,35 Z" fill="rgb(129,40,33)" stroke="#812821" stroke-width="2" stroke-linecap="round" stroke-linejoin="round" stroke-dasharray="0 0"/></g><g transform="translate(614, 175) rotate(0, 26, 10)" width="52" height="20"><text text-decoration="none" x="10" fill="#fdf6f6" font-size="11pt" font-family="lt_regular"  y="16">Seen&#160;</text><text text-decoration="none" x="17" fill="#fdf6f6" font-size="11pt" font-family="lt_regular"  y="38">By</text><text text-decoration="none" x="35" fill="#4b4b4b" font-size="10pt" font-family="noto_regular"  y="38"></text></g></g><g id="KndQENf5Suy"><g transform="translate(400 290)"><rect x="0" y="0" width="100" height="50" fill="rgb(203,137,42)" stroke="#cb892a" stroke-width="2" stroke-linecap="round" stroke-linejoin="round" stroke-dasharray="0 0"/></g><g transform="translate(429.5, 305.5) rotate(0, 20.5, 9.5)" width="41" height="19"><text text-decoration="none" x="0" fill="#fdf6f6" font-size="10pt" font-family="lt_regular"  y="17">Patient</text><text text-decoration="none" x="41" fill="#4b4b4b" font-size="10pt" font-family="noto_regular"  y="17"></text></g></g><g id="WIfRb9MgM5C"><g transform="translate(650 280)"><path d="M 120,35 L 60,70 L 0,35 L 60,0 L 120,35 L 120,35 Z" fill="rgb(129,40,33)" stroke="#812821" stroke-width="2" stroke-linecap="round" stroke-linejoin="round" stroke-dasharray="0 0"/></g><g transform="translate(680.5, 305) rotate(0, 29.5, 10)" width="59" height="20"><text text-decoration="none" x="0" fill="#fdf6f6" font-size="11pt" font-family="lt_regular"  y="17">prescribe</text><text text-decoration="none" x="59" fill="#4b4b4b" font-size="10pt" font-family="noto_regular"  y="17"></text></g></g><g id="baHhFOqHGSB"><g transform="translate(420 170)"><ellipse cx="50" cy="25" rx="50" ry="25" fill="rgb(53,98,96)" stroke="#356260" stroke-width="2" stroke-linecap="round" stroke-linejoin="round" stroke-dasharray="0 0"/></g><g transform="translate(458, 185) rotate(0, 12, 10)" width="24" height="20"><text text-decoration="underline" x="0" fill="#fdf6f6" font-size="11pt" font-family="lt_regular"  y="17">PID</text><text text-decoration="none" x="24" fill="#4b4b4b" font-size="10pt" font-family="noto_regular"  y="17"></text></g></g><g id="ccS1X7co9v5"><g transform="translate(349.9999999999999 120.00000000000001)"><ellipse cx="50" cy="25" rx="50" ry="25" fill="rgb(53,98,96)" stroke="#356260" stroke-width="2" stroke-linecap="round" stroke-linejoin="round" stroke-dasharray="0 0"/></g><g transform="translate(382.4999999999999, 135) rotate(0, 17.5, 10)" width="35" height="20"><text text-decoration="none" x="0" fill="#fdf6f6" font-size="11pt" font-family="lt_regular"  y="17">name</text><text text-decoration="none" x="35" fill="#4b4b4b" font-size="10pt" font-family="noto_regular"  y="17"></text></g></g><g id="Q4Owo6teQ7n"><g transform="translate(270 160)"><ellipse cx="50" cy="25" rx="50" ry="25" fill="rgb(53,98,96)" stroke="#356260" stroke-width="2" stroke-linecap="round" stroke-linejoin="round" stroke-dasharray="0 0"/></g><g transform="translate(309.5, 175) rotate(0, 10.5, 10)" width="21" height="20"><text text-decoration="none" x="0" fill="#fdf6f6" font-size="11pt" font-family="lt_regular"  y="17">sex</text><text text-decoration="none" x="21" fill="#4b4b4b" font-size="10pt" font-family="noto_regular"  y="17"></text></g></g><g id="FSqAuRBMXaZ"><g transform="translate(240 230)"><ellipse cx="50" cy="25" rx="50" ry="25" fill="rgb(53,98,96)" stroke="#356260" stroke-width="2" stroke-linecap="round" stroke-linejoin="round" stroke-dasharray="0 0"/></g><g transform="translate(265.5, 245) rotate(0, 24.5, 10)" width="49" height="20"><text text-decoration="none" x="0.5" fill="#fdf6f6" font-size="11pt" font-family="lt_regular"  y="17">address</text><text text-decoration="none" x="48.5" fill="#4b4b4b" font-size="10pt" font-family="noto_regular"  y="17"></text></g></g><g id="9ogmvEa18nV"><g transform="translate(210 290)"><ellipse cx="50" cy="25" rx="50" ry="25" fill="rgb(53,98,96)" stroke="#356260" stroke-width="2" stroke-linecap="round" stroke-linejoin="round" stroke-dasharray="0 0"/></g><g transform="translate(224.5, 305) rotate(0, 35.5, 10)" width="71" height="20"><text text-decoration="none" x="0" fill="#fdf6f6" font-size="11pt" font-family="lt_regular"  y="17">contact_no</text><text text-decoration="none" x="72" fill="#4b4b4b" font-size="10pt" font-family="noto_regular"  y="17"></text></g></g><g id="lu05dLq7d0g"><g transform="translate(280 340)"><ellipse cx="50" cy="25" rx="50" ry="25" fill="rgb(53,98,96)" stroke="#356260" stroke-width="2" stroke-linecap="round" stroke-linejoin="round" stroke-dasharray="0 0"/></g><g transform="translate(299, 345) rotate(0, 31, 20)" width="62" height="40"><text text-decoration="none" x="0.5" fill="#fdf6f6" font-size="11pt" font-family="lt_regular"  y="16">Insurance&#160;</text><text text-decoration="none" x="18" fill="#fdf6f6" font-size="11pt" font-family="lt_regular"  y="38">Info</text><text text-decoration="none" x="44" fill="#4b4b4b" font-size="10pt" font-family="noto_regular"  y="38"></text></g></g><g id="CqC6GBuGy80"><g transform="translate(800 270)"><ellipse cx="50" cy="25" rx="50" ry="25" fill="rgb(53,98,96)" stroke="#356260" stroke-width="2" stroke-linecap="round" stroke-linejoin="round" stroke-dasharray="0 0"/></g><g transform="translate(834.5, 285) rotate(0, 15.5, 10)" width="31" height="20"><text text-decoration="none" x="0" fill="#fdf6f6" font-size="11pt" font-family="lt_regular"  y="17">Date</text><text text-decoration="none" x="31" fill="#4b4b4b" font-size="10pt" font-family="noto_regular"  y="17"></text></g></g><g id="Ttdkp9jYmsy"><g transform="translate(780 340)"><ellipse cx="50" cy="25" rx="50" ry="25" fill="rgb(53,98,96)" stroke="#356260" stroke-width="2" stroke-linecap="round" stroke-linejoin="round" stroke-dasharray="0 0"/></g><g transform="translate(801.5, 355) rotate(0, 28.5, 10)" width="57" height="20"><text text-decoration="none" x="0" fill="#fdf6f6" font-size="11pt" font-family="lt_regular"  y="17">Quantity</text><text text-decoration="none" x="57" fill="#4b4b4b" font-size="10pt" font-family="noto_regular"  y="17"></text></g></g><g id="wuXA3g5e9zZ"><mask id="036d7" x="686" y="171" width="138" height="28" maskUnits="userSpaceOnUse"><rect x="686" y="171" width="138" height="28" fill="white" /><rect x="773.5" y="173" width="13" height="24" fill="black" /></mask><g mask="url(#036d7)"><path d="M 810,185 L 700,185" fill="none" stroke="#9A9A9A" stroke-width="2" stroke-linecap="round" stroke-linejoin="round"/></g><g transform="translate(776.5, 176)" width="7" height="18"><text text-decoration="none" x="0" fill="#4b4b4b" font-size="10pt" font-family="noto_regular"  y="17">1</text><text text-decoration="none" x="7" fill="#4b4b4b" font-size="10pt" font-family="noto_regular"  y="17"></text></g></g><g id="4pqnhHXgAdF"><g><path d="M 802,194 L 692,194" fill="none" stroke="#7E7E7E" stroke-width="2" stroke-linecap="round" stroke-linejoin="round"/></g></g><g id="XzY6WcqYovQ"><mask id="74dd6" x="486" y="171" width="108" height="158" maskUnits="userSpaceOnUse"><rect x="486" y="171" width="108" height="158" fill="white" /><rect x="507.72292276993005" y="277.4502504988637" width="16" height="24" fill="black" /></mask><g mask="url(#74dd6)"><path d="M 580,185 L 500,315" fill="none" stroke="#9A9A9A" stroke-width="2" stroke-linecap="round" stroke-linejoin="round"/></g><g transform="translate(510.72292276993005, 280.4502504988637)" width="10" height="18"><text text-decoration="none" x="0" fill="#4b4b4b" font-size="10pt" font-family="noto_regular"  y="17">N</text><text text-decoration="none" x="10" fill="#4b4b4b" font-size="10pt" font-family="noto_regular"  y="17"></text></g></g><g id="ZfcxEP3LdSv"><g><path d="M 582,196 L 506,319" fill="none" stroke="#7E7E7E" stroke-width="2" stroke-linecap="round" stroke-linejoin="round"/></g></g><g id="NXk3nUyYgYT"><mask id="a9638" x="486" y="301" width="178" height="28" maskUnits="userSpaceOnUse"><rect x="486" y="301" width="178" height="28" fill="white" /><rect x="523.5" y="303" width="13" height="24" fill="black" /></mask><g mask="url(#a9638)"><path d="M 500,315 L 650,315" fill="none" stroke="#9A9A9A" stroke-width="2" stroke-linecap="round" stroke-linejoin="round"/></g><g transform="translate(526.5, 306)" width="7" height="18"><text text-decoration="none" x="0" fill="#4b4b4b" font-size="10pt" font-family="noto_regular"  y="17">1</text><text text-decoration="none" x="7" fill="#4b4b4b" font-size="10pt" font-family="noto_regular"  y="17"></text></g></g><g id="aBAUIVtZxci"><g><path d="M 770,315 L 810,280" fill="none" stroke="#9A9A9A" stroke-width="2" stroke-linecap="round" stroke-linejoin="round"/></g></g><g id="R2HeWfE4q77"><g><path d="M 770,315 L 810,342" fill="none" stroke="#9A9A9A" stroke-width="2" stroke-linecap="round" stroke-linejoin="round"/></g></g><g id="AS7Zc2CoEeI"><g><path d="M 450,290 L 450,218" fill="none" stroke="#9A9A9A" stroke-width="2" stroke-linecap="round" stroke-linejoin="round"/></g></g><g id="wJ8MVC0gdCm"><g><path d="M 450,290 L 380,168" fill="none" stroke="#9A9A9A" stroke-width="2" stroke-linecap="round" stroke-linejoin="round"/></g></g><g id="tBDfbhbHFlB"><g><path d="M 450,290 L 340,208" fill="none" stroke="#9A9A9A" stroke-width="2" stroke-linecap="round" stroke-linejoin="round"/></g></g><g id="Y24uWqhPM1r"><g><path d="M 400,315 L 330,270" fill="none" stroke="#9A9A9A" stroke-width="2" stroke-linecap="round" stroke-linejoin="round"/></g></g><g id="EfYKZ4mB9NJ"><g><path d="M 400,315 L 310,315" fill="none" stroke="#9A9A9A" stroke-width="2" stroke-linecap="round" stroke-linejoin="round"/></g></g><g id="hwn0GfkrZTT"><g><path d="M 400,315 L 350,342" fill="none" stroke="#9A9A9A" stroke-width="2" stroke-linecap="round" stroke-linejoin="round"/></g></g><g id="idDUBUiGDAu"><g><path d="M 780,128 L 860,160" fill="none" stroke="#9A9A9A" stroke-width="2" stroke-linecap="round" stroke-linejoin="round"/></g></g><g id="cxIEAfqF2hO"><g><path d="M 870,120 L 860,160" fill="none" stroke="#9A9A9A" stroke-width="2" stroke-linecap="round" stroke-linejoin="round"/></g></g><g id="wtRXNQ0whpw"><g><path d="M 960,128 L 860,160" fill="none" stroke="#9A9A9A" stroke-width="2" stroke-linecap="round" stroke-linejoin="round"/></g></g><g id="ZDMwbRJf4R4"><mask id="f30b0" x="696" y="196" width="178" height="98" maskUnits="userSpaceOnUse"><rect x="696" y="196" width="178" height="98" fill="white" /><rect x="826.314505800142" y="210.68656395993372" width="13" height="24" fill="black" /></mask><g mask="url(#f30b0)"><path d="M 860,210 L 710,280" fill="none" stroke="#9A9A9A" stroke-width="2" stroke-linecap="round" stroke-linejoin="round"/></g><g transform="translate(829.314505800142, 213.68656395993372)" width="7" height="18"><text text-decoration="none" x="0" fill="#4b4b4b" font-size="10pt" font-family="noto_regular"  y="17">1</text><text text-decoration="none" x="7" fill="#4b4b4b" font-size="10pt" font-family="noto_regular"  y="17"></text></g></g><g id="bq3L5k6kbtM"><g transform="translate(660 430)"><rect x="0" y="0" width="100" height="50" fill="rgb(203,137,42)" stroke="#cb892a" stroke-width="2" stroke-linecap="round" stroke-linejoin="round" stroke-dasharray="0 0"/></g><g transform="translate(694, 445) rotate(0, 16, 10)" width="32" height="20"><text text-decoration="none" x="0" fill="#fdf6f6" font-size="11pt" font-family="lt_regular"  y="17">Drug</text><text text-decoration="none" x="32" fill="#4b4b4b" font-size="10pt" font-family="noto_regular"  y="17"></text></g></g><g id="ocLiAwCxMiS"><mask id="34fb4" x="696" y="336" width="28" height="108" maskUnits="userSpaceOnUse"><rect x="696" y="336" width="28" height="108" fill="white" /><rect x="703.5" y="388" width="13" height="24" fill="black" /></mask><g mask="url(#34fb4)"><path d="M 710,430 L 710,350" fill="none" stroke="#9A9A9A" stroke-width="2" stroke-linecap="round" stroke-linejoin="round"/></g><g transform="translate(706.5, 391)" width="7" height="18"><text text-decoration="none" x="0" fill="#4b4b4b" font-size="10pt" font-family="noto_regular"  y="17">1</text><text text-decoration="none" x="7" fill="#4b4b4b" font-size="10pt" font-family="noto_regular"  y="17"></text></g></g><g id="ir35CsCqUmR"><g transform="translate(430 420)"><path d="M 120,35 L 60,70 L 0,35 L 60,0 L 120,35 L 120,35 Z" fill="rgb(129,40,33)" stroke="#812821" stroke-width="2" stroke-linecap="round" stroke-linejoin="round" stroke-dasharray="0 0"/></g><g transform="translate(472.5, 445) rotate(0, 17.5, 10)" width="35" height="20"><text text-decoration="none" x="0" fill="#fdf6f6" font-size="11pt" font-family="lt_regular"  y="17">Make</text><text text-decoration="none" x="37" fill="#4b4b4b" font-size="10pt" font-family="noto_regular"  y="17"></text></g></g><g id="5Y4KS6893i8"><g transform="translate(220 430)"><rect x="0" y="0" width="147" height="50" fill="rgb(203,137,42)" stroke="#cb892a" stroke-width="2" stroke-linecap="round" stroke-linejoin="round" stroke-dasharray="0 0"/></g><g transform="translate(230, 445) rotate(0, 63.5, 10)" width="127" height="20"><text text-decoration="none" x="0.5" fill="#fdf6f6" font-size="11pt" font-family="lt_regular"  y="17">Drug_Manufacturer</text><text text-decoration="none" x="126.5" fill="#4b4b4b" font-size="10pt" font-family="noto_regular"  y="17"></text></g></g><g id="0DO2OWdqjRI"><g transform="translate(889.9999999999999 420)"><path d="M 120,35 L 60,70 L 0,35 L 60,0 L 120,35 L 120,35 Z" fill="rgb(129,40,33)" stroke="#812821" stroke-width="2" stroke-linecap="round" stroke-linejoin="round" stroke-dasharray="0 0"/></g><g transform="translate(938.4999999999999, 445) rotate(0, 11.5, 10)" width="23" height="20"><text text-decoration="none" x="0" fill="#fdf6f6" font-size="11pt" font-family="lt_regular"  y="17">Sell</text><text text-decoration="none" x="24" fill="#4b4b4b" font-size="10pt" font-family="noto_regular"  y="17"></text></g></g><g id="DfkGXZc2Gqc"><g transform="translate(1080 440)"><rect x="0" y="0" width="100" height="50" fill="rgb(203,137,42)" stroke="#cb892a" stroke-width="2" stroke-linecap="round" stroke-linejoin="round" stroke-dasharray="0 0"/></g><g transform="translate(1098.5, 455) rotate(0, 31.5, 10)" width="63" height="20"><text text-decoration="none" x="0" fill="#fdf6f6" font-size="11pt" font-family="lt_regular"  y="17">Employee</text><text text-decoration="none" x="66" fill="#4b4b4b" font-size="10pt" font-family="noto_regular"  y="17"></text></g></g><g id="1cYQ4zQw5aA"><mask id="3c9d7" x="353" y="441" width="91" height="28" maskUnits="userSpaceOnUse"><rect x="353" y="441" width="91" height="28" fill="white" /><rect x="390.5" y="443" width="13" height="24" fill="black" /></mask><g mask="url(#3c9d7)"><path d="M 367,455 L 430,455" fill="none" stroke="#9A9A9A" stroke-width="2" stroke-linecap="round" stroke-linejoin="round"/></g><g transform="translate(393.5, 446)" width="7" height="18"><text text-decoration="none" x="0" fill="#4b4b4b" font-size="10pt" font-family="noto_regular"  y="17">1</text><text text-decoration="none" x="7" fill="#4b4b4b" font-size="10pt" font-family="noto_regular"  y="17"></text></g></g><g id="xCaIIx6jzZS"><mask id="4fb4d" x="536" y="441" width="138" height="28" maskUnits="userSpaceOnUse"><rect x="536" y="441" width="138" height="28" fill="white" /><rect x="622" y="443" width="16" height="24" fill="black" /></mask><g mask="url(#4fb4d)"><path d="M 550,455 L 660,455" fill="none" stroke="#9A9A9A" stroke-width="2" stroke-linecap="round" stroke-linejoin="round"/></g><g transform="translate(625, 446)" width="10" height="18"><text text-decoration="none" x="0" fill="#4b4b4b" font-size="10pt" font-family="noto_regular"  y="17">N</text><text text-decoration="none" x="10" fill="#4b4b4b" font-size="10pt" font-family="noto_regular"  y="17"></text></g></g><g id="kDjZTrrDII4"><g><path d="M 548,464 L 652,463" fill="none" stroke="#7E7E7E" stroke-width="2" stroke-linecap="round" stroke-linejoin="round"/></g></g><g id="uKV1yOAjhsG"><mask id="4d5af" x="746" y="441" width="158" height="28" maskUnits="userSpaceOnUse"><rect x="746" y="441" width="158" height="28" fill="white" /><rect x="780.5" y="442.5" width="19" height="25" fill="black" /></mask><g mask="url(#4d5af)"><path d="M 890,455 L 760,455" fill="none" stroke="#9A9A9A" stroke-width="2" stroke-linecap="round" stroke-linejoin="round"/></g><g transform="translate(783.5, 445.5)" width="13" height="19"><text text-decoration="none" x="0.5" fill="#4b4b4b" font-size="10pt" font-family="lt_regular"  y="17">M</text><text text-decoration="none" x="12.5" fill="#4b4b4b" font-size="10pt" font-family="noto_regular"  y="17"></text></g></g><g id="xXbmp0nKJJ8"><g transform="translate(950 340)"><ellipse cx="50" cy="25" rx="50" ry="25" fill="rgb(53,98,96)" stroke="#356260" stroke-width="2" stroke-linecap="round" stroke-linejoin="round" stroke-dasharray="0 0"/></g><g transform="translate(984, 355) rotate(0, 16, 10)" width="32" height="20"><text text-decoration="none" x="0" fill="#fdf6f6" font-size="11pt" font-family="lt_regular"  y="17">Price</text><text text-decoration="none" x="33" fill="#4b4b4b" font-size="10pt" font-family="noto_regular"  y="17"></text></g></g><g id="knHP3E7FWc8"><g><path d="M 950,420 L 980,388" fill="none" stroke="#9A9A9A" stroke-width="2" stroke-linecap="round" stroke-linejoin="round"/></g></g><g id="ydnJerIAnTJ"><g><path d="M 710,480 L 710,550" fill="none" stroke="#9A9A9A" stroke-width="2" stroke-linecap="round" stroke-linejoin="round"/></g></g><g id="QbEMtkTTsRu"><g transform="translate(660 550)"><ellipse cx="50" cy="25" rx="50" ry="25" fill="rgb(53,98,96)" stroke="#356260" stroke-width="2" stroke-linecap="round" stroke-linejoin="round" stroke-dasharray="0 0"/></g><g transform="translate(691, 555) rotate(0, 19, 20)" width="38" height="40"><text text-decoration="underline" x="0.5" fill="#fdf6f6" font-size="11pt" font-family="lt_regular"  y="16">Trade</text><text text-decoration="underline" x="37.5" fill="#fdf6f6" font-size="11pt" font-family="lt_regular"  y="16"></text><text text-decoration="underline" x="0" fill="#fdf6f6" font-size="11pt" font-family="lt_regular"  y="38">Name</text><text text-decoration="none" x="38" fill="#4b4b4b" font-size="10pt" font-family="noto_regular"  y="38"></text></g></g><g id="XtZELDjdT1v"><g transform="translate(169.99999999999997 550)"><ellipse cx="51.5" cy="25" rx="51.5" ry="25" fill="rgb(53,98,96)" stroke="#356260" stroke-width="2" stroke-linecap="round" stroke-linejoin="round" stroke-dasharray="0 0"/></g><g transform="translate(180, 565) rotate(0, 41.5, 10)" width="83" height="20"><text text-decoration="underline" x="0" fill="#fdf6f6" font-size="11pt" font-family="lt_regular"  y="17">Company_ID</text><text text-decoration="none" x="84" fill="#4b4b4b" font-size="10pt" font-family="noto_regular"  y="17"></text></g></g><g id="ue3yN7ZoOjr"><g transform="translate(280 550)"><ellipse cx="50" cy="25" rx="50" ry="25" fill="rgb(53,98,96)" stroke="#356260" stroke-width="2" stroke-linecap="round" stroke-linejoin="round" stroke-dasharray="0 0"/></g><g transform="translate(304.5, 565) rotate(0, 25.5, 10)" width="51" height="20"><text text-decoration="none" x="0" fill="#fdf6f6" font-size="11pt" font-family="lt_regular"  y="17">Address</text><text text-decoration="none" x="51" fill="#4b4b4b" font-size="10pt" font-family="noto_regular"  y="17"></text></g></g><g id="Qb9ItIVJeiX"><g transform="translate(119.99999999999997 500)"><ellipse cx="50" cy="25" rx="50" ry="25" fill="rgb(53,98,96)" stroke="#356260" stroke-width="2" stroke-linecap="round" stroke-linejoin="round" stroke-dasharray="0 0"/></g><g transform="translate(150.99999999999997, 515) rotate(0, 19, 10)" width="38" height="20"><text text-decoration="none" x="0" fill="#fdf6f6" font-size="11pt" font-family="lt_regular"  y="17">Name</text><text text-decoration="none" x="38" fill="#4b4b4b" font-size="10pt" font-family="noto_regular"  y="17"></text></g></g><g id="fnmkRIqFrzq"><g><path d="M 294,480 L 210,510" fill="none" stroke="#9A9A9A" stroke-width="2" stroke-linecap="round" stroke-linejoin="round"/></g></g><g id="yfylZ78ErgO"><g><path d="M 294,480 L 290,560" fill="none" stroke="#9A9A9A" stroke-width="2" stroke-linecap="round" stroke-linejoin="round"/></g></g><g id="CGCfgENY1eM"><g transform="translate(540 620)"><path d="M 120,35 L 60,70 L 0,35 L 60,0 L 120,35 L 120,35 Z" fill="rgb(129,40,33)" stroke="#812821" stroke-width="2" stroke-linecap="round" stroke-linejoin="round" stroke-dasharray="0 0"/></g><g transform="translate(572, 645) rotate(0, 28, 10)" width="56" height="20"><text text-decoration="none" x="0" fill="#fdf6f6" font-size="11pt" font-family="lt_regular"  y="17">Contract</text><text text-decoration="none" x="56" fill="#4b4b4b" font-size="10pt" font-family="noto_regular"  y="17"></text></g></g><g id="xWmHDt3dFSW"><mask id="b9bef" x="280" y="466" width="274" height="203" maskUnits="userSpaceOnUse"><rect x="280" y="466" width="274" height="203" fill="white" />undefined<rect x="427.73963186876654" y="568.3310389310332" width="16" height="25" fill="black" /></mask><g mask="url(#b9bef)"><path d="M 540,655 L 294,480" fill="none" stroke="#9A9A9A" stroke-width="2" stroke-linecap="round" stroke-linejoin="round"/></g>undefined<g transform="translate(430.73963186876654, 571.3310389310332)" width="10" height="19"><text text-decoration="none" x="0" fill="#4b4b4b" font-size="10pt" font-family="lt_regular"  y="17">N</text><text text-decoration="none" x="10" fill="#4b4b4b" font-size="10pt" font-family="noto_regular"  y="17"></text></g></g><g id="b13gSY9mW1n"><g transform="translate(420 680)"><ellipse cx="50" cy="25" rx="50" ry="25" fill="rgb(53,98,96)" stroke="#356260" stroke-width="2" stroke-linecap="round" stroke-linejoin="round" stroke-dasharray="0 0"/></g><g transform="translate(435.5, 695) rotate(0, 34.5, 10)" width="69" height="20"><text text-decoration="none" x="0.5" fill="#fdf6f6" font-size="11pt" font-family="lt_regular"  y="17">Start_Date</text><text text-decoration="none" x="68.5" fill="#4b4b4b" font-size="10pt" font-family="noto_regular"  y="17"></text></g></g><g id="sKdE0ZZMXAg"><g transform="translate(530 730)"><ellipse cx="50" cy="25" rx="50" ry="25" fill="rgb(53,98,96)" stroke="#356260" stroke-width="2" stroke-linecap="round" stroke-linejoin="round" stroke-dasharray="0 0"/></g><g transform="translate(548.5, 745) rotate(0, 31.5, 10)" width="63" height="20"><text text-decoration="none" x="0" fill="#fdf6f6" font-size="11pt" font-family="lt_regular"  y="17">End_Date</text><text text-decoration="none" x="63" fill="#4b4b4b" font-size="10pt" font-family="noto_regular"  y="17"></text></g></g><g id="fpeHQSjvUZs"><g><path d="M 600,690 L 580,730" fill="none" stroke="#9A9A9A" stroke-width="2" stroke-linecap="round" stroke-linejoin="round"/></g></g><g id="vNcgCTgIRRZ"><g><path d="M 600,690 L 510,690" fill="none" stroke="#9A9A9A" stroke-width="2" stroke-linecap="round" stroke-linejoin="round"/></g></g><g id="UTe0fQNVYfF"><g transform="translate(900 630)"><rect x="0" y="0" width="100" height="50" fill="rgb(203,137,42)" stroke="#cb892a" stroke-width="2" stroke-linecap="round" stroke-linejoin="round" stroke-dasharray="0 0"/></g><g transform="translate(918.5, 645) rotate(0, 31.5, 10)" width="63" height="20"><text text-decoration="none" x="0" fill="#fdf6f6" font-size="11pt" font-family="lt_regular"  y="17">Pharmacy</text><text text-decoration="none" x="63" fill="#4b4b4b" font-size="10pt" font-family="noto_regular"  y="17"></text></g></g><g id="SL5b1NJX8x1"><mask id="1c6dc" x="646" y="641" width="268" height="28" maskUnits="userSpaceOnUse"><rect x="646" y="641" width="268" height="28" fill="white" /><rect x="863.5" y="643" width="13" height="24" fill="black" /></mask><g mask="url(#1c6dc)"><path d="M 900,655 L 660,655" fill="none" stroke="#9A9A9A" stroke-width="2" stroke-linecap="round" stroke-linejoin="round"/></g><g transform="translate(866.5, 646)" width="7" height="18"><text text-decoration="none" x="0" fill="#4b4b4b" font-size="10pt" font-family="noto_regular"  y="17">1</text><text text-decoration="none" x="7" fill="#4b4b4b" font-size="10pt" font-family="noto_regular"  y="17"></text></g></g><g id="TDqTm0YWwy6"><mask id="bb6fc" x="936" y="476" width="28" height="168" maskUnits="userSpaceOnUse"><rect x="936" y="476" width="28" height="168" fill="white" /><rect x="942" y="588" width="16" height="24" fill="black" /></mask><g mask="url(#bb6fc)"><path d="M 950,490 L 949.9999999999999,550 Q 949.9999999999999,550.0000000000001 950,560 Q 950,570 950,570 L 950,630" fill="none" stroke="#9A9A9A" stroke-width="2" stroke-linecap="round" stroke-linejoin="round"/></g><g transform="translate(945, 591)" width="10" height="18"><text text-decoration="none" x="0" fill="#4b4b4b" font-size="10pt" font-family="noto_regular"  y="17">N</text><text text-decoration="none" x="10" fill="#4b4b4b" font-size="10pt" font-family="noto_regular"  y="17"></text></g></g><g id="HZsXqdXDtZI"><g transform="translate(790 720)"><ellipse cx="50" cy="25" rx="50" ry="25" fill="rgb(53,98,96)" stroke="#356260" stroke-width="2" stroke-linecap="round" stroke-linejoin="round" stroke-dasharray="0 0"/></g><g transform="translate(815, 735) rotate(0, 25, 10)" width="50" height="20"><text text-decoration="underline" x="0" fill="#fdf6f6" font-size="11pt" font-family="lt_regular"  y="17">Phar-ID</text><text text-decoration="none" x="50" fill="#4b4b4b" font-size="10pt" font-family="noto_regular"  y="17"></text></g></g><g id="icxVgJmeTO5"><g transform="translate(889.9999999999997 750)"><ellipse cx="50" cy="25" rx="50" ry="25" fill="rgb(53,98,96)" stroke="#356260" stroke-width="2" stroke-linecap="round" stroke-linejoin="round" stroke-dasharray="0 0"/></g><g transform="translate(922.4999999999997, 765) rotate(0, 17.5, 10)" width="35" height="20"><text text-decoration="none" x="0" fill="#fdf6f6" font-size="11pt" font-family="lt_regular"  y="17">name</text><text text-decoration="none" x="35" fill="#4b4b4b" font-size="10pt" font-family="noto_regular"  y="17"></text></g></g><g id="6PBHx5LHOnh"><g transform="translate(1020 660)"><ellipse cx="50" cy="25" rx="50" ry="25" fill="rgb(53,98,96)" stroke="#356260" stroke-width="2" stroke-linecap="round" stroke-linejoin="round" stroke-dasharray="0 0"/></g><g transform="translate(1044.5, 675) rotate(0, 25.5, 10)" width="51" height="20"><text text-decoration="none" x="0" fill="#fdf6f6" font-size="11pt" font-family="lt_regular"  y="17">Address</text><text text-decoration="none" x="51" fill="#4b4b4b" font-size="10pt" font-family="noto_regular"  y="17"></text></g></g><g id="0UAyGaHpCgp"><g transform="translate(990 720)"><ellipse cx="50" cy="25" rx="50" ry="25" fill="rgb(53,98,96)" stroke="#356260" stroke-width="2" stroke-linecap="round" stroke-linejoin="round" stroke-dasharray="0 0"/></g><g transform="translate(1029, 735) rotate(0, 11, 10)" width="22" height="20"><text text-decoration="none" x="0" fill="#fdf6f6" font-size="11pt" font-family="lt_regular"  y="17">Fax</text><text text-decoration="none" x="22" fill="#4b4b4b" font-size="10pt" font-family="noto_regular"  y="17"></text></g></g><g id="ZbexGdLDTlT"><g><path d="M 950,680 L 905,701 L 860,722" fill="none" stroke="#9A9A9A" stroke-width="2" stroke-linecap="round" stroke-linejoin="round"/></g></g><g id="RolkaoBgnVr"><g><path d="M 950,680 L 940,750" fill="none" stroke="#9A9A9A" stroke-width="2" stroke-linecap="round" stroke-linejoin="round"/></g></g><g id="Mz0za4YbNPX"><g><path d="M 950,680 L 1000,730" fill="none" stroke="#9A9A9A" stroke-width="2" stroke-linecap="round" stroke-linejoin="round"/></g></g><g id="luNbVBna79I"><g><path d="M 950,680 L 1020,685" fill="none" stroke="#9A9A9A" stroke-width="2" stroke-linecap="round" stroke-linejoin="round"/></g></g><g id="wd1AXHUrQJs"><g transform="translate(1070 570)"><path d="M 120,35 L 60,70 L 0,35 L 60,0 L 120,35 L 120,35 Z" fill="rgb(129,40,33)" stroke="#812821" stroke-width="2" stroke-linecap="round" stroke-linejoin="round" stroke-dasharray="0 0"/></g><g transform="translate(1113.5, 595) rotate(0, 16.5, 10)" width="33" height="20"><text text-decoration="none" x="0" fill="#fdf6f6" font-size="11pt" font-family="lt_regular"  y="17">work</text><text text-decoration="none" x="34" fill="#4b4b4b" font-size="10pt" font-family="noto_regular"  y="17"></text></g></g><g id="qn4Q1k1QlXi"><mask id="5239c" x="986" y="591" width="98" height="78" maskUnits="userSpaceOnUse"><rect x="986" y="591" width="98" height="78" fill="white" /><rect x="1017.9120041362021" y="625.5628541884271" width="13" height="24" fill="black" /></mask><g mask="url(#5239c)"><path d="M 1000,655 L 1070,605" fill="none" stroke="#9A9A9A" stroke-width="2" stroke-linecap="round" stroke-linejoin="round"/></g><g transform="translate(1020.9120041362021, 628.5628541884271)" width="7" height="18"><text text-decoration="none" x="0" fill="#4b4b4b" font-size="10pt" font-family="noto_regular"  y="17">1</text><text text-decoration="none" x="7" fill="#4b4b4b" font-size="10pt" font-family="noto_regular"  y="17"></text></g></g><g id="9NkUHPdZg18"><g><path d="M 1006,660 L 1070,616" fill="none" stroke="#7E7E7E" stroke-width="2" stroke-linecap="round" stroke-linejoin="round"/></g></g><g id="5pt5slesmCs"><mask id="747cc" x="1116" y="476" width="28" height="108" maskUnits="userSpaceOnUse"><rect x="1116" y="476" width="28" height="108" fill="white" /><rect x="1122" y="508" width="16" height="24" fill="black" /></mask><g mask="url(#747cc)"><path d="M 1130,570 L 1130,490" fill="none" stroke="#9A9A9A" stroke-width="2" stroke-linecap="round" stroke-linejoin="round"/></g><g transform="translate(1125, 511)" width="10" height="18"><text text-decoration="none" x="0" fill="#4b4b4b" font-size="10pt" font-family="noto_regular"  y="17">N</text><text text-decoration="none" x="10" fill="#4b4b4b" font-size="10pt" font-family="noto_regular"  y="17"></text></g></g><g id="ODHGLcVqILu"><g><path d="M 1138,565 L 1140,496" fill="none" stroke="#7E7E7E" stroke-width="2" stroke-linecap="round" stroke-linejoin="round"/></g></g><g id="H1qHugYLmHm"><g transform="translate(1160 690)"><ellipse cx="50" cy="25" rx="50" ry="25" fill="rgb(53,98,96)" stroke="#356260" stroke-width="2" stroke-linecap="round" stroke-linejoin="round" stroke-dasharray="0 0"/></g><g transform="translate(1179.5, 705) rotate(0, 30.5, 10)" width="61" height="20"><text text-decoration="none" x="0" fill="#fdf6f6" font-size="11pt" font-family="lt_regular"  y="17">Shift_End</text><text text-decoration="none" x="62" fill="#4b4b4b" font-size="10pt" font-family="noto_regular"  y="17"></text></g></g><g id="qNi9sbgXWYj"><g transform="translate(1200 620)"><ellipse cx="50" cy="25" rx="50" ry="25" fill="rgb(53,98,96)" stroke="#356260" stroke-width="2" stroke-linecap="round" stroke-linejoin="round" stroke-dasharray="0 0"/></g><g transform="translate(1217, 635) rotate(0, 33, 10)" width="66" height="20"><text text-decoration="none" x="0.5" fill="#fdf6f6" font-size="11pt" font-family="lt_regular"  y="17">Shift_start</text><text text-decoration="none" x="65.5" fill="#4b4b4b" font-size="10pt" font-family="noto_regular"  y="17"></text></g></g><g id="Mb81lODj6xa"><g transform="translate(1200 380)"><ellipse cx="50" cy="25" rx="50" ry="25" fill="rgb(53,98,96)" stroke="#356260" stroke-width="2" stroke-linecap="round" stroke-linejoin="round" stroke-dasharray="0 0"/></g><g transform="translate(1231, 395) rotate(0, 19, 10)" width="38" height="20"><text text-decoration="none" x="0" fill="#fdf6f6" font-size="11pt" font-family="lt_regular"  y="17">Name</text><text text-decoration="none" x="38" fill="#4b4b4b" font-size="10pt" font-family="noto_regular"  y="17"></text></g></g><g id="4HV4QfGaqO3"><g transform="translate(1210 470)"><ellipse cx="52.5" cy="25" rx="52.5" ry="25" fill="rgb(53,98,96)" stroke="#356260" stroke-width="2" stroke-linecap="round" stroke-linejoin="round" stroke-dasharray="0 0"/></g><g transform="translate(1220, 485) rotate(0, 42.5, 10)" width="85" height="20"><text text-decoration="underline" x="0" fill="#fdf6f6" font-size="11pt" font-family="lt_regular"  y="17">Employee_ID</text><text text-decoration="none" x="88" fill="#4b4b4b" font-size="10pt" font-family="noto_regular"  y="17"></text></g></g><g id="EZ84mPNEZZ7"><g><path d="M 1180,465 L 1195,443 L 1210,420" fill="none" stroke="#9A9A9A" stroke-width="2" stroke-linecap="round" stroke-linejoin="round"/></g></g><g id="FLhazAFzmrS"><g><path d="M 1180,465 L 1200,473 L 1220,480" fill="none" stroke="#9A9A9A" stroke-width="2" stroke-linecap="round" stroke-linejoin="round"/></g></g><g id="F4rU1iBVR8s"><g><path d="M 1130,640 L 1170,700" fill="none" stroke="#9A9A9A" stroke-width="2" stroke-linecap="round" stroke-linejoin="round"/></g></g><g id="66q98Hl1dOH"><g><path d="M 1130,640 L 1200,645" fill="none" stroke="#9A9A9A" stroke-width="2" stroke-linecap="round" stroke-linejoin="round"/></g></g><g id="lRhFWwrEPUD"><g><path d="M 291,481 L 222,550" fill="none" stroke="#9A9A9A" stroke-width="2" stroke-linecap="round" stroke-linejoin="round"/></g></g></svg>